<?xml version="1.0"?>
<svg xmlns="http://www.w3.org/2000/svg" viewBox="0 0 64 64">
    <path d="M 3 8 C 1.346 8 0 9.346 0 11 L 0 53 C 0 54.654 1.346 56 3 56 L 61 56 C 62.654 56 64 54.654 64 53 L 64 11 C 64 9.346 62.654 8 61 8 L 3 8 z M 3 10 L 61 10 C 61.551 10 62 10.448 62 11 L 62 53 C 62 53.552 61.551 54 61 54 L 3 54 C 2.449 54 2 53.552 2 53 L 2 11 C 2 10.448 2.449 10 3 10 z M 17 14 C 16.4 14 16 14.447 16 15 L 16 17 C 16 17.552 16.4 18 17 18 C 17.6 18 18 17.553 18 17 L 18 15 C 18 14.447 17.6 14 17 14 z M 11.894531 15.335938 C 11.763656 15.353109 11.63 15.397656 11.5 15.472656 C 10.98 15.772656 10.858766 16.360844 11.134766 16.839844 L 12.134766 18.570312 C 12.321766 18.894313 12.655953 19.072266 13.001953 19.072266 C 13.130953 19.095266 13.327 19.0375 13.5 18.9375 C 14.02 18.6375 14.141234 18.049312 13.865234 17.570312 L 12.865234 15.839844 C 12.658234 15.480594 12.287156 15.284422 11.894531 15.335938 z M 22.107422 15.337891 C 21.714797 15.286375 21.343719 15.480594 21.136719 15.839844 L 20.136719 17.572266 C 19.859719 18.050266 19.981953 18.6375 20.501953 18.9375 C 20.674953 19.0375 20.872953 19.097219 21.001953 19.074219 C 21.348953 19.074219 21.683188 18.891266 21.867188 18.572266 L 22.867188 16.839844 C 23.143187 16.360844 23.021953 15.774609 22.501953 15.474609 C 22.371953 15.399609 22.238297 15.355063 22.107422 15.337891 z M 8.4648438 19.001953 C 8.0836094 18.944203 7.6976562 19.111953 7.4726562 19.501953 C 7.1726562 20.020953 7.3618437 20.590187 7.8398438 20.867188 L 9.5703125 21.867188 C 9.7303125 21.959187 9.8766875 22.042297 10.054688 22.029297 C 10.414687 22.006297 10.7375 21.847953 10.9375 21.501953 C 11.2375 20.981953 11.049312 20.410766 10.570312 20.134766 L 8.8398438 19.134766 C 8.7200938 19.065766 8.5919219 19.021203 8.4648438 19.001953 z M 25.533203 19.001953 C 25.406125 19.021203 25.279906 19.065766 25.160156 19.134766 L 23.427734 20.134766 C 22.949734 20.410766 22.7625 20.98 23.0625 21.5 C 23.2625 21.846 23.585313 22.006297 23.945312 22.029297 C 24.123313 22.042297 24.267734 21.957234 24.427734 21.865234 L 26.160156 20.865234 C 26.639156 20.589234 26.825391 20.02 26.525391 19.5 C 26.300391 19.11 25.914437 18.944203 25.533203 19.001953 z M 17.074219 20.007812 C 14.322219 20.007812 12.082031 22.248 12.082031 25 C 12.082031 27.752 14.322219 29.992188 17.074219 29.992188 C 19.826219 29.992188 22.066406 27.752 22.066406 25 C 22.066406 22.248 19.826219 20.007812 17.074219 20.007812 z M 17.074219 21.992188 C 18.738219 21.992188 20.082031 23.336 20.082031 25 C 20.082031 26.664 18.738219 28.007812 17.074219 28.007812 C 15.410219 28.007812 14.066406 26.664 14.066406 25 C 14.066406 23.336 15.410219 21.992188 17.074219 21.992188 z M 7 24 C 6.447 24 6 24.4 6 25 C 6 25.6 6.447 26 7 26 L 9 26 C 9.553 26 10 25.6 10 25 C 10 24.4 9.553 24 9 24 L 7 24 z M 25 24 C 24.447 24 24 24.4 24 25 C 24 25.6 24.447 26 25 26 L 27 26 C 27.553 26 28 25.6 28 25 C 28 24.4 27.553 24 27 24 L 25 24 z M 9.9433594 28.001953 C 9.8162812 28.021203 9.6900625 28.065766 9.5703125 28.134766 L 7.8398438 29.134766 C 7.3618438 29.410766 7.1726562 29.98 7.4726562 30.5 C 7.6726563 30.846 7.9954687 31.006297 8.3554688 31.029297 C 8.5334688 31.042297 8.6798437 30.957234 8.8398438 30.865234 L 10.570312 29.865234 C 11.049313 29.589234 11.2375 29.02 10.9375 28.5 C 10.7125 28.11 10.324594 27.944203 9.9433594 28.001953 z M 24.054688 28.001953 C 23.673453 27.944203 23.2875 28.111953 23.0625 28.501953 C 22.7625 29.020953 22.949734 29.590187 23.427734 29.867188 L 25.160156 30.867188 C 25.320156 30.959187 25.464578 31.042297 25.642578 31.029297 C 26.002578 31.006297 26.325391 30.847953 26.525391 30.501953 C 26.825391 29.981953 26.639156 29.410766 26.160156 29.134766 L 24.427734 28.134766 C 24.307984 28.065766 24.181766 28.021203 24.054688 28.001953 z M 13.107422 30.925781 C 12.714797 30.874266 12.341766 31.070438 12.134766 31.429688 L 11.134766 33.160156 C 10.858766 33.639156 10.981953 34.227344 11.501953 34.527344 C 11.674953 34.627344 11.871 34.685109 12 34.662109 C 12.346 34.661109 12.682188 34.479156 12.867188 34.160156 L 13.867188 32.429688 C 14.143187 31.950688 14.021953 31.3625 13.501953 31.0625 C 13.371953 30.9875 13.238297 30.942953 13.107422 30.925781 z M 20.894531 30.925781 C 20.763656 30.942953 20.63 30.9875 20.5 31.0625 C 19.98 31.3625 19.858766 31.948734 20.134766 32.427734 L 21.134766 34.160156 C 21.321766 34.484156 21.655953 34.662109 22.001953 34.662109 C 22.130953 34.685109 22.327 34.625391 22.5 34.525391 C 23.02 34.225391 23.141234 33.639156 22.865234 33.160156 L 21.865234 31.427734 C 21.658234 31.068484 21.287156 30.874266 20.894531 30.925781 z M 17 32 C 16.4 32 16 32.447 16 33 L 16 35 C 16 35.553 16.4 36 17 36 C 17.6 36 18 35.553 18 35 L 18 33 C 18 32.447 17.6 32 17 32 z M 48 32.857422 C 47.222625 32.857422 46.445406 33.140531 45.878906 33.707031 L 39.492188 40.09375 L 36.099609 36.699219 C 34.999609 35.599219 33.000391 35.599219 31.900391 36.699219 L 18.599609 50 L 13.042969 50 C 12.417969 50 12 50.4 12 51 C 12 51.6 12.521969 52 13.042969 52 L 58.980469 52 C 59.501469 52 60.023438 51.6 60.023438 51 C 60.023438 50.4 59.501469 50 58.980469 50 L 32.414062 50 L 47.292969 35.121094 C 47.669969 34.742094 48.329031 34.742094 48.707031 35.121094 L 58.292969 44.707031 C 58.683969 45.098031 59.316031 45.098031 59.707031 44.707031 C 60.098031 44.316031 60.098031 43.683969 59.707031 43.292969 L 50.121094 33.707031 C 49.554094 33.140531 48.777375 32.857422 48 32.857422 z M 34 37.800781 C 34.25 37.800781 34.499219 37.899609 34.699219 38.099609 L 38.09375 41.492188 L 29.585938 50 L 21.400391 50 L 33.300781 38.099609 C 33.500781 37.899609 33.75 37.800781 34 37.800781 z M 5 50 C 4.4 50 4 50.4 4 51 C 4 51.6 4.4 52 5 52 L 9 52 C 9.6 52 10 51.6 10 51 C 10 50.4 9.6 50 9 50 L 5 50 z"/>
</svg>
