<?xml version="1.0"?>
<svg xmlns="http://www.w3.org/2000/svg" viewBox="0 0 24 24">
    <path style="text-indent:0;text-align:start;line-height:normal;text-transform:none;block-progression:tb;-inkscape-font-specification:Sans" d="M 4 5 C 2.8954305 5 2 5.8954305 2 7 C 2 8.1045695 2.8954305 9 4 9 C 5.1045695 9 6 8.1045695 6 7 C 6 5.8954305 5.1045695 5 4 5 z M 9 6 L 9 8 L 22 8 L 22 6 L 9 6 z M 4 15 C 2.8954305 15 2 15.895431 2 17 C 2 18.104569 2.8954305 19 4 19 C 5.1045695 19 6 18.104569 6 17 C 6 15.895431 5.1045695 15 4 15 z M 9 16 L 9 18 L 22 18 L 22 16 L 9 16 z" overflow="visible" font-family="Sans"/>
</svg>
