<?xml version="1.0"?>
<svg xmlns="http://www.w3.org/2000/svg" viewBox="0 0 24 24" enable-background="new 0 0 24 24">
    <path d="M 7 2.09375 L 3.3125 3.40625 L 3.3125 4.90625 L 5.1875 4.3125 L 5.1875 10.59375 L 7.1875 10.59375 L 7.1875 2.09375 L 7 2.09375 z M 11 6 L 11 8 L 22 8 L 22 6 L 11 6 z M 5.6875 13 C 5.1875 13 4.80625 13.0875 4.40625 13.1875 C 4.00625 13.2875 3.60625 13.6125 3.40625 13.8125 C 3.20625 14.0125 2.9125 14.3875 2.8125 14.6875 C 2.7125 14.9875 2.59375 15.4125 2.59375 15.8125 L 4.59375 15.8125 C 4.59375 15.6125 4.6875 15.4125 4.6875 15.3125 C 4.6875 15.2125 4.80625 15.00625 4.90625 14.90625 C 5.00625 14.80625 5.0875 14.6 5.1875 14.5 C 5.2875 14.4 5.39375 14.40625 5.59375 14.40625 C 5.89375 14.40625 6.2125 14.4875 6.3125 14.6875 C 6.4125 14.8875 6.5 15.1 6.5 15.5 C 6.5 15.7 6.5125 16.0125 6.3125 16.3125 C 6.1125 16.6125 5.9 17.00625 5.5 17.40625 L 2.8125 20.3125 L 2.8125 21.59375 L 8.8125 21.59375 L 8.8125 20.09375 L 5.40625 20.09375 L 6.5 18.8125 C 6.9 18.5125 7.20625 18.20625 7.40625 17.90625 C 7.60625 17.60625 7.8 17.39375 8 17.09375 C 8.2 16.79375 8.30625 16.70625 8.40625 16.40625 C 8.50625 16.10625 8.5 15.8 8.5 15.5 C 8.5 15.2 8.4125 14.8 8.3125 14.5 C 8.2125 14.2 8.0125 13.8875 7.8125 13.6875 C 7.6125 13.4875 7.20625 13.2875 6.90625 13.1875 C 6.60625 13.0875 6.1875 13 5.6875 13 z M 11 16 L 11 18 L 22 18 L 22 16 L 11 16 z"/>
</svg>
